<svg xmlns="http://www.w3.org/2000/svg" width="377" height="97" viewBox="0 0 377 97" class="editor-view__logo-preview" data-v-8d8ae3dd="" data-v-b9d2a614=""><svg id="mark" viewBox="0 0 100 100" width="97" height="97" x="0" y="0" data-v-8d8ae3dd="" style="fill: rgb(37, 51, 99);"><rect x="0" y="0" width="100%" height="100%" fill="none" data-v-8d8ae3dd=""></rect><g data-v-8d8ae3dd=""><g xmlns="http://www.w3.org/2000/svg"><path fill-rule="evenodd" clip-rule="evenodd" d="M49.875,24.332c-13.525,0-24.49,10.965-24.49,24.491   c0,13.527,10.965,24.492,24.49,24.492c13.526,0,24.492-10.965,24.492-24.492C74.367,35.297,63.401,24.332,49.875,24.332z    M49.875,69.496c-11.416,0-20.672-9.256-20.672-20.673c0-11.417,9.256-20.672,20.672-20.672c11.418,0,20.674,9.255,20.674,20.672   C70.549,60.24,61.293,69.496,49.875,69.496z"></path><path fill-rule="evenodd" clip-rule="evenodd" d="M49.75,19.717c1.952,0,3.533,0.338,3.533-2.373c0-2.712-1.581-7.448-3.533-7.448   c-1.951,0-3.533,4.736-3.533,7.448C46.216,20.055,47.798,19.717,49.75,19.717z"></path><path fill-rule="evenodd" clip-rule="evenodd" d="M49.75,77.783c-1.951,0-3.533-0.339-3.533,2.371c0,2.714,1.582,7.448,3.533,7.448   c1.952,0,3.533-4.734,3.533-7.448C53.282,77.444,51.701,77.783,49.75,77.783z"></path><path fill-rule="evenodd" clip-rule="evenodd" d="M18.343,45.217c-2.712,0-7.447,1.581-7.447,3.532s4.735,3.534,7.447,3.534   c2.712,0,2.373-1.583,2.373-3.534S21.055,45.217,18.343,45.217z"></path><path fill-rule="evenodd" clip-rule="evenodd" d="M81.154,45.217c-2.711,0-2.371,1.581-2.371,3.532s-0.34,3.534,2.371,3.534   c2.713,0,7.448-1.583,7.448-3.534S83.867,45.217,81.154,45.217z"></path><path fill-rule="evenodd" clip-rule="evenodd" d="M29.22,69.279c-1.38-1.38-2.258-2.738-4.176-0.82   c-1.917,1.918-4.147,6.385-2.768,7.764c1.38,1.381,5.847-0.851,7.765-2.768C31.958,71.538,30.6,70.66,29.22,69.279z"></path><path fill-rule="evenodd" clip-rule="evenodd" d="M70.278,28.22c1.381,1.38,2.259,2.738,4.176,0.82   c1.918-1.917,4.148-6.385,2.769-7.764c-1.379-1.38-5.846,0.851-7.764,2.768S68.898,26.841,70.278,28.22z"></path><path fill-rule="evenodd" clip-rule="evenodd" d="M70.279,69.278c-1.381,1.382-2.738,2.26-0.82,4.177s6.385,4.148,7.764,2.768   c1.38-1.379-0.85-5.846-2.768-7.764S71.66,67.898,70.279,69.278z"></path><path fill-rule="evenodd" clip-rule="evenodd" d="M29.22,28.22c1.38-1.379,2.738-2.258,0.821-4.176   c-1.918-1.917-6.384-4.148-7.765-2.768c-1.379,1.379,0.851,5.846,2.769,7.764C26.962,30.958,27.841,29.6,29.22,28.22z"></path><path fill-rule="evenodd" clip-rule="evenodd" d="M49.75,33.706c-8.309,0-15.044,6.735-15.044,15.044   c0,8.309,6.735,15.044,15.044,15.044c8.308,0,15.044-6.735,15.044-15.044C64.794,40.441,58.058,33.706,49.75,33.706z    M44.673,59.928L49.019,50H43.51l10.451-11.943L50.121,48h5.867L44.673,59.928z"></path></g></g></svg><svg id="name" viewBox="0 0 109.294921875 33.6015625" width="109" height="33.51089190300041" x="113" y="22.00945030178233" data-v-8d8ae3dd="" style="fill: rgb(37, 51, 99);"><rect x="0" y="0" width="100%" height="100%" fill="none" data-v-8d8ae3dd=""></rect><g data-v-8d8ae3dd=""><path xmlns="http://www.w3.org/2000/svg" d="M19.68 13.70L19.68 18.98L6.74 18.98L6.74 27.74L21.92 27.74L21.92 33.15L0 33.15L0 0.45L21.88 0.45L21.88 5.91L6.74 5.91L6.74 13.70L19.68 13.70ZM42.83 24.57L42.83 24.57Q42.83 22.66 41.49 21.64Q40.14 20.62 36.63 19.48Q33.13 18.35 31.09 17.25L31.09 17.25Q25.52 14.24 25.52 9.14L25.52 9.14Q25.52 6.49 27.01 4.41Q28.50 2.34 31.30 1.17Q34.10 0 37.58 0L37.58 0Q41.08 0 43.82 1.27Q46.56 2.54 48.08 4.85Q49.59 7.17 49.59 10.11L49.59 10.11L42.86 10.11Q42.86 7.86 41.44 6.61Q40.03 5.37 37.46 5.37L37.46 5.37Q34.99 5.37 33.62 6.41Q32.25 7.46 32.25 9.16L32.25 9.16Q32.25 10.76 33.86 11.84Q35.47 12.92 38.59 13.86L38.59 13.86Q44.34 15.59 46.97 18.15Q49.59 20.71 49.59 24.53L49.59 24.53Q49.59 28.77 46.38 31.19Q43.17 33.60 37.73 33.60L37.73 33.60Q33.96 33.60 30.86 32.22Q27.76 30.84 26.13 28.44Q24.50 26.03 24.50 22.87L24.50 22.87L31.27 22.87Q31.27 28.28 37.73 28.28L37.73 28.28Q40.14 28.28 41.49 27.30Q42.83 26.32 42.83 24.57ZM71.11 24.57L71.11 24.57Q71.11 22.66 69.76 21.64Q68.42 20.62 64.91 19.48Q61.41 18.35 59.36 17.25L59.36 17.25Q53.79 14.24 53.79 9.14L53.79 9.14Q53.79 6.49 55.29 4.41Q56.78 2.34 59.58 1.17Q62.37 0 65.86 0L65.86 0Q69.36 0 72.10 1.27Q74.84 2.54 76.36 4.85Q77.87 7.17 77.87 10.11L77.87 10.11L71.13 10.11Q71.13 7.86 69.72 6.61Q68.30 5.37 65.74 5.37L65.74 5.37Q63.27 5.37 61.90 6.41Q60.53 7.46 60.53 9.16L60.53 9.16Q60.53 10.76 62.14 11.84Q63.74 12.92 66.87 13.86L66.87 13.86Q72.62 15.59 75.24 18.15Q77.87 20.71 77.87 24.53L77.87 24.53Q77.87 28.77 74.66 31.19Q71.45 33.60 66.01 33.60L66.01 33.60Q62.24 33.60 59.14 32.22Q56.04 30.84 54.41 28.44Q52.78 26.03 52.78 22.87L52.78 22.87L59.54 22.87Q59.54 28.28 66.01 28.28L66.01 28.28Q68.42 28.28 69.76 27.30Q71.11 26.32 71.11 24.57ZM109.29 16.08L109.29 17.54Q109.29 22.37 107.59 26.01Q105.88 29.65 102.70 31.63Q99.52 33.60 95.41 33.60L95.41 33.60Q91.35 33.60 88.16 31.65Q84.97 29.69 83.22 26.07Q81.47 22.44 81.44 17.72L81.44 17.72L81.44 16.10Q81.44 11.28 83.18 7.60Q84.92 3.93 88.10 1.97Q91.28 0 95.37 0Q99.46 0 102.64 1.97Q105.81 3.93 107.55 7.60Q109.29 11.28 109.29 16.08L109.29 16.08ZM102.47 17.65L102.47 16.06Q102.47 10.92 100.63 8.24Q98.78 5.57 95.37 5.57L95.37 5.57Q91.98 5.57 90.14 8.21Q88.29 10.85 88.27 15.95L88.27 15.95L88.27 17.54Q88.27 22.55 90.11 25.31Q91.96 28.08 95.41 28.08L95.41 28.08Q98.81 28.08 100.63 25.41Q102.44 22.75 102.47 17.65L102.47 17.65Z"></path></g></svg><svg id="slogan" viewBox="0 0 264.033203125 19.47265625" width="264" height="19.470207493434923" x="113" y="59.52034220478274" data-v-8d8ae3dd="" style="fill: rgb(37, 51, 99);"><rect x="0" y="0" width="100%" height="100%" fill="none" data-v-8d8ae3dd=""></rect><g data-v-8d8ae3dd=""><path xmlns="http://www.w3.org/2000/svg" d="M8.55 6.75L8.55 9.04L2.93 9.04L2.93 12.85L9.53 12.85L9.53 15.21L0 15.21L0 0.99L9.51 0.99L9.51 3.36L2.93 3.36L2.93 6.75L8.55 6.75ZM11.01 4.64L13.66 4.64L13.75 5.86Q14.88 4.44 16.79 4.44L16.79 4.44Q18.47 4.44 19.29 5.43Q20.11 6.42 20.13 8.38L20.13 8.38L20.13 15.21L17.30 15.21L17.30 8.45Q17.30 7.55 16.91 7.14Q16.52 6.74 15.62 6.74L15.62 6.74Q14.42 6.74 13.83 7.75L13.83 7.75L13.83 15.21L11.01 15.21L11.01 4.64ZM27.13 15.40L27.13 15.40Q24.80 15.40 23.34 13.97Q21.88 12.55 21.88 10.18L21.88 10.18L21.88 9.90Q21.88 8.31 22.50 7.06Q23.12 5.80 24.24 5.12Q25.37 4.44 26.82 4.44L26.82 4.44Q28.98 4.44 30.23 5.81Q31.47 7.18 31.47 9.69L31.47 9.69L31.47 10.84L24.75 10.84Q24.88 11.88 25.57 12.50Q26.26 13.13 27.31 13.13L27.31 13.13Q28.95 13.13 29.86 11.94L29.86 11.94L31.25 13.50Q30.62 14.39 29.53 14.90Q28.45 15.40 27.13 15.40ZM26.81 6.73L26.81 6.73Q25.97 6.73 25.44 7.29Q24.92 7.86 24.78 8.92L24.78 8.92L28.70 8.92L28.70 8.69Q28.68 7.75 28.19 7.24Q27.71 6.73 26.81 6.73ZM39.05 4.57L39.01 7.29Q38.44 7.21 38.00 7.21L38.00 7.21Q36.40 7.21 35.90 8.29L35.90 8.29L35.90 15.21L33.08 15.21L33.08 4.64L35.74 4.64L35.82 5.90Q36.67 4.44 38.17 4.44L38.17 4.44Q38.64 4.44 39.05 4.57L39.05 4.57ZM39.78 9.96L39.78 9.84Q39.78 7.41 40.93 5.93Q42.09 4.44 44.05 4.44L44.05 4.44Q45.79 4.44 46.76 5.63L46.76 5.63L46.88 4.64L49.43 4.64L49.43 14.85Q49.43 16.24 48.80 17.27Q48.17 18.29 47.03 18.83Q45.89 19.37 44.36 19.37L44.36 19.37Q43.19 19.37 42.09 18.90Q40.99 18.44 40.42 17.71L40.42 17.71L41.67 15.99Q42.72 17.17 44.23 17.17L44.23 17.17Q45.35 17.17 45.98 16.57Q46.60 15.97 46.60 14.86L46.60 14.86L46.60 14.30Q45.63 15.40 44.03 15.40L44.03 15.40Q42.13 15.40 40.95 13.91Q39.78 12.42 39.78 9.96L39.78 9.96ZM42.60 10.05L42.60 10.05Q42.60 11.48 43.17 12.30Q43.75 13.12 44.76 13.12L44.76 13.12Q46.04 13.12 46.60 12.15L46.60 12.15L46.60 7.71Q46.04 6.74 44.78 6.74L44.78 6.74Q43.76 6.74 43.18 7.57Q42.60 8.40 42.60 10.05ZM54.65 4.64L54.65 15.21L51.83 15.21L51.83 4.64L54.65 4.64ZM51.89 3.38L53.82 0.35L56.89 0.35L54.19 3.38L51.89 3.38ZM66.05 15.21L63.20 15.21Q63.01 14.82 62.92 14.26L62.92 14.26Q61.89 15.40 60.25 15.40L60.25 15.40Q58.70 15.40 57.68 14.50Q56.66 13.60 56.66 12.24L56.66 12.24Q56.66 10.56 57.91 9.66Q59.15 8.76 61.50 8.75L61.50 8.75L62.80 8.75L62.80 8.14Q62.80 7.41 62.43 6.97Q62.05 6.53 61.24 6.53L61.24 6.53Q60.53 6.53 60.12 6.88Q59.72 7.22 59.72 7.81L59.72 7.81L56.89 7.81Q56.89 6.89 57.46 6.11Q58.03 5.33 59.06 4.89Q60.10 4.44 61.39 4.44L61.39 4.44Q63.34 4.44 64.49 5.42Q65.63 6.41 65.63 8.18L65.63 8.18L65.63 12.76Q65.64 14.27 66.05 15.04L66.05 15.04L66.05 15.21ZM60.87 13.24L60.87 13.24Q61.49 13.24 62.02 12.96Q62.55 12.69 62.80 12.22L62.80 12.22L62.80 10.40L61.75 10.40Q59.63 10.40 59.49 11.87L59.49 11.87L59.48 12.03Q59.48 12.56 59.85 12.90Q60.22 13.24 60.87 13.24ZM80.90 15.21L78.23 10L75.90 10L75.90 15.21L72.97 15.21L72.97 0.99L78.25 0.99Q80.77 0.99 82.14 2.11Q83.51 3.23 83.51 5.28L83.51 5.28Q83.51 6.74 82.88 7.71Q82.25 8.68 80.97 9.26L80.97 9.26L84.04 15.07L84.04 15.21L80.90 15.21ZM75.90 3.36L75.90 7.63L78.26 7.63Q79.37 7.63 79.97 7.07Q80.58 6.50 80.58 5.52L80.58 5.52Q80.58 4.51 80.00 3.94Q79.43 3.36 78.25 3.36L78.25 3.36L75.90 3.36ZM90.41 15.40L90.41 15.40Q88.09 15.40 86.63 13.97Q85.17 12.55 85.17 10.18L85.17 10.18L85.17 9.90Q85.17 8.31 85.78 7.06Q86.40 5.80 87.52 5.12Q88.65 4.44 90.10 4.44L90.10 4.44Q92.27 4.44 93.51 5.81Q94.76 7.18 94.76 9.69L94.76 9.69L94.76 10.84L88.03 10.84Q88.16 11.88 88.85 12.50Q89.54 13.13 90.60 13.13L90.60 13.13Q92.23 13.13 93.14 11.94L93.14 11.94L94.53 13.50Q93.90 14.39 92.81 14.90Q91.73 15.40 90.41 15.40ZM90.09 6.73L90.09 6.73Q89.25 6.73 88.73 7.29Q88.20 7.86 88.06 8.92L88.06 8.92L91.98 8.92L91.98 8.69Q91.96 7.75 91.47 7.24Q90.99 6.73 90.09 6.73ZM96.30 4.64L98.96 4.64L99.04 5.86Q100.18 4.44 102.08 4.44L102.08 4.44Q103.76 4.44 104.58 5.43Q105.40 6.42 105.42 8.38L105.42 8.38L105.42 15.21L102.60 15.21L102.60 8.45Q102.60 7.55 102.21 7.14Q101.82 6.74 100.91 6.74L100.91 6.74Q99.72 6.74 99.12 7.75L99.12 7.75L99.12 15.21L96.30 15.21L96.30 4.64ZM107.12 9.95L107.12 9.82Q107.12 8.25 107.72 7.02Q108.33 5.79 109.47 5.12Q110.61 4.44 112.11 4.44L112.11 4.44Q114.25 4.44 115.60 5.75Q116.95 7.06 117.11 9.31L117.11 9.31L117.13 10.03Q117.13 12.46 115.77 13.93Q114.41 15.40 112.13 15.40Q109.84 15.40 108.48 13.94Q107.12 12.47 107.12 9.95L107.12 9.95ZM109.94 10.03L109.94 10.03Q109.94 11.53 110.51 12.33Q111.07 13.13 112.13 13.13L112.13 13.13Q113.15 13.13 113.73 12.34Q114.31 11.55 114.31 9.82L114.31 9.82Q114.31 8.35 113.73 7.54Q113.15 6.73 112.11 6.73L112.11 6.73Q111.07 6.73 110.51 7.53Q109.94 8.34 109.94 10.03ZM120.71 4.64L122.68 11.76L124.64 4.64L127.59 4.64L124.02 15.21L121.33 15.21L117.76 4.64L120.71 4.64ZM137.66 15.21L134.80 15.21Q134.61 14.82 134.52 14.26L134.52 14.26Q133.50 15.40 131.86 15.40L131.86 15.40Q130.30 15.40 129.28 14.50Q128.26 13.60 128.26 12.24L128.26 12.24Q128.26 10.56 129.51 9.66Q130.75 8.76 133.11 8.75L133.11 8.75L134.40 8.75L134.40 8.14Q134.40 7.41 134.03 6.97Q133.65 6.53 132.84 6.53L132.84 6.53Q132.13 6.53 131.72 6.88Q131.32 7.22 131.32 7.81L131.32 7.81L128.50 7.81Q128.50 6.89 129.06 6.11Q129.63 5.33 130.66 4.89Q131.70 4.44 132.99 4.44L132.99 4.44Q134.94 4.44 136.09 5.42Q137.24 6.41 137.24 8.18L137.24 8.18L137.24 12.76Q137.25 14.27 137.66 15.04L137.66 15.04L137.66 15.21ZM132.47 13.24L132.47 13.24Q133.10 13.24 133.62 12.96Q134.15 12.69 134.40 12.22L134.40 12.22L134.40 10.40L133.35 10.40Q131.23 10.40 131.09 11.87L131.09 11.87L131.08 12.03Q131.08 12.56 131.46 12.90Q131.83 13.24 132.47 13.24ZM148.93 9.86L148.93 10.02Q148.93 12.56 147.84 13.98Q146.76 15.40 144.81 15.40L144.81 15.40Q143.10 15.40 142.07 14.08L142.07 14.08L141.94 15.21L139.40 15.21L139.40 0.21L142.23 0.21L142.23 5.59Q143.20 4.44 144.79 4.44L144.79 4.44Q146.73 4.44 147.83 5.86Q148.93 7.29 148.93 9.86L148.93 9.86ZM146.10 9.81L146.10 9.81Q146.10 8.21 145.60 7.48Q145.09 6.74 144.08 6.74L144.08 6.74Q142.73 6.74 142.23 7.84L142.23 7.84L142.23 12.01Q142.74 13.13 144.10 13.13L144.10 13.13Q145.47 13.13 145.90 11.78L145.90 11.78Q146.10 11.13 146.10 9.81ZM153.64 0.21L153.64 15.21L150.81 15.21L150.81 0.21L153.64 0.21ZM160.83 15.40L160.83 15.40Q158.51 15.40 157.05 13.97Q155.59 12.55 155.59 10.18L155.59 10.18L155.59 9.90Q155.59 8.31 156.20 7.06Q156.82 5.80 157.94 5.12Q159.07 4.44 160.52 4.44L160.52 4.44Q162.69 4.44 163.93 5.81Q165.18 7.18 165.18 9.69L165.18 9.69L165.18 10.84L158.45 10.84Q158.58 11.88 159.27 12.50Q159.96 13.13 161.02 13.13L161.02 13.13Q162.65 13.13 163.56 11.94L163.56 11.94L164.95 13.50Q164.32 14.39 163.23 14.90Q162.15 15.40 160.83 15.40ZM160.51 6.73L160.51 6.73Q159.67 6.73 159.15 7.29Q158.62 7.86 158.48 8.92L158.48 8.92L162.40 8.92L162.40 8.69Q162.38 7.75 161.89 7.24Q161.41 6.73 160.51 6.73ZM173.74 4.64L175.70 11.21L177.66 4.64L180.68 4.64L176.44 16.85L176.20 17.40Q175.25 19.47 173.08 19.47L173.08 19.47Q172.46 19.47 171.83 19.29L171.83 19.29L171.83 17.15L172.26 17.16Q173.06 17.16 173.45 16.91Q173.85 16.67 174.07 16.10L174.07 16.10L174.40 15.23L170.70 4.64L173.74 4.64ZM195.52 6.75L195.52 9.04L189.89 9.04L189.89 12.85L196.49 12.85L196.49 15.21L186.96 15.21L186.96 0.99L196.47 0.99L196.47 3.36L189.89 3.36L189.89 6.75L195.52 6.75ZM201.46 15.21L198.62 15.21L198.62 6.71L197.05 6.71L197.05 4.64L198.62 4.64L198.62 3.74Q198.62 1.96 199.64 0.98Q200.66 0 202.50 0L202.50 0Q203.09 0 203.94 0.20L203.94 0.20L203.91 2.38Q203.55 2.29 203.05 2.29L203.05 2.29Q201.46 2.29 201.46 3.79L201.46 3.79L201.46 4.64L203.55 4.64L203.55 6.71L201.46 6.71L201.46 15.21ZM208.00 4.64L208.00 15.21L205.17 15.21L205.17 4.64L208.00 4.64ZM205 1.90L205 1.90Q205 1.27 205.42 0.86Q205.85 0.45 206.58 0.45L206.58 0.45Q207.30 0.45 207.73 0.86Q208.16 1.27 208.16 1.90L208.16 1.90Q208.16 2.55 207.73 2.96Q207.29 3.37 206.58 3.37Q205.87 3.37 205.43 2.96Q205 2.55 205 1.90ZM214.72 13.13L214.72 13.13Q215.50 13.13 215.99 12.70Q216.47 12.27 216.49 11.55L216.49 11.55L219.14 11.55Q219.13 12.63 218.55 13.52Q217.98 14.41 216.98 14.91Q215.98 15.40 214.77 15.40L214.77 15.40Q212.50 15.40 211.19 13.96Q209.88 12.52 209.88 9.98L209.88 9.98L209.88 9.79Q209.88 7.35 211.18 5.90Q212.48 4.44 214.75 4.44L214.75 4.44Q216.73 4.44 217.92 5.57Q219.12 6.70 219.14 8.57L219.14 8.57L216.49 8.57Q216.47 7.75 215.99 7.24Q215.50 6.73 214.70 6.73L214.70 6.73Q213.71 6.73 213.21 7.45Q212.71 8.16 212.71 9.78L212.71 9.78L212.71 10.07Q212.71 11.70 213.20 12.41Q213.70 13.13 214.72 13.13ZM223.73 4.64L223.73 15.21L220.90 15.21L220.90 4.64L223.73 4.64ZM220.73 1.90L220.73 1.90Q220.73 1.27 221.16 0.86Q221.58 0.45 222.31 0.45L222.31 0.45Q223.04 0.45 223.47 0.86Q223.90 1.27 223.90 1.90L223.90 1.90Q223.90 2.55 223.46 2.96Q223.03 3.37 222.31 3.37Q221.60 3.37 221.17 2.96Q220.73 2.55 220.73 1.90ZM230.92 15.40L230.92 15.40Q228.59 15.40 227.13 13.97Q225.67 12.55 225.67 10.18L225.67 10.18L225.67 9.90Q225.67 8.31 226.29 7.06Q226.90 5.80 228.03 5.12Q229.16 4.44 230.61 4.44L230.61 4.44Q232.77 4.44 234.02 5.81Q235.26 7.18 235.26 9.69L235.26 9.69L235.26 10.84L228.54 10.84Q228.67 11.88 229.36 12.50Q230.05 13.13 231.10 13.13L231.10 13.13Q232.73 13.13 233.65 11.94L233.65 11.94L235.04 13.50Q234.40 14.39 233.32 14.90Q232.24 15.40 230.92 15.40ZM230.60 6.73L230.60 6.73Q229.76 6.73 229.23 7.29Q228.71 7.86 228.56 8.92L228.56 8.92L232.49 8.92L232.49 8.69Q232.47 7.75 231.98 7.24Q231.49 6.73 230.60 6.73ZM236.81 4.64L239.46 4.64L239.55 5.86Q240.68 4.44 242.59 4.44L242.59 4.44Q244.27 4.44 245.09 5.43Q245.91 6.42 245.93 8.38L245.93 8.38L245.93 15.21L243.11 15.21L243.11 8.45Q243.11 7.55 242.71 7.14Q242.32 6.74 241.42 6.74L241.42 6.74Q240.22 6.74 239.63 7.75L239.63 7.75L239.63 15.21L236.81 15.21L236.81 4.64ZM248.62 2.04L251.45 2.04L251.45 4.64L253.25 4.64L253.25 6.71L251.45 6.71L251.45 11.98Q251.45 12.57 251.67 12.82Q251.89 13.08 252.53 13.08L252.53 13.08Q253.00 13.08 253.36 13.01L253.36 13.01L253.36 15.15Q252.53 15.40 251.65 15.40L251.65 15.40Q248.68 15.40 248.62 12.40L248.62 12.40L248.62 6.71L247.08 6.71L247.08 4.64L248.62 4.64L248.62 2.04ZM259.69 15.40L259.69 15.40Q257.36 15.40 255.90 13.97Q254.44 12.55 254.44 10.18L254.44 10.18L254.44 9.90Q254.44 8.31 255.06 7.06Q255.67 5.80 256.80 5.12Q257.93 4.44 259.38 4.44L259.38 4.44Q261.54 4.44 262.79 5.81Q264.03 7.18 264.03 9.69L264.03 9.69L264.03 10.84L257.30 10.84Q257.44 11.88 258.13 12.50Q258.82 13.13 259.87 13.13L259.87 13.13Q261.50 13.13 262.42 11.94L262.42 11.94L263.81 13.50Q263.17 14.39 262.09 14.90Q261.01 15.40 259.69 15.40ZM259.37 6.73L259.37 6.73Q258.53 6.73 258.00 7.29Q257.48 7.86 257.33 8.92L257.33 8.92L261.26 8.92L261.26 8.69Q261.24 7.75 260.75 7.24Q260.26 6.73 259.37 6.73Z"></path></g></svg></svg>